<svg xmlns="http://www.w3.org/2000/svg" xmlns:xlink="http://www.w3.org/1999/xlink" version="1.1" width="225"
	height="225" preserveAspectRatio="xMinYMin meet" style="enable-background:new 0 0 255 255;">
	<rect id="backgroundrect" width="100%" height="100%" x="0" y="0" fill="none" stroke="none" />
	<style type="text/css">
		.st0 {
			fill-rule: evenodd;
			clip-rule: evenodd;
			stroke: #FFF;
			stroke-miterlimit: 10;
		}

		.st1 {
			fill-rule: evenodd;
			clip-rule: evenodd;
			stroke: #FFF;
			stroke-width: 17;
			stroke-linecap: round;
			stroke-linejoin: round;
			stroke-miterlimit: 3;
		}
	</style>

	<g class="currentLayer" style="">
		<title>Layer 1</title>
		<g id="svg_1" class="" fill="#ffffff" fill-opacity="1">
			<path class="st0"
				d="M132.5,191.1h4.1H132.5v-7.7c0.1,0,0.1,0,0.1,0c0.1,0,0.3,0,0.4,0c1.9-0.1,3.5-0.9,4.8-2.2   c1.5-1.4,2.2-3.2,2.2-5.3c0-2.1-0.7-3.8-2.2-5.3c-1.3-1.4-2.9-2.1-4.8-2.3c-0.1,0-0.2,0-0.4,0c0,0-0.1,0-0.1,0v-7.4h4.1h-4.1v-7.6   c0.1,0,0.1,0,0.1,0c0.1,0,0.3,0,0.4,0c1.9-0.1,3.5-0.9,4.8-2.2c1.5-1.5,2.2-3.2,2.2-5.3c0-2.1-0.7-3.8-2.2-5.3   c-1.3-1.4-2.9-2.1-4.8-2.3c-0.1,0-0.2,0-0.4,0c0,0-0.1,0-0.1,0v-7.4V123c0.1,0,0.1,0,0.1,0c0.1,0,0.3,0,0.4,0   c1.9-0.2,3.5-0.9,4.8-2.2c1.5-1.5,2.2-3.3,2.2-5.4c0-2.1-0.7-3.8-2.2-5.3c-1.3-1.4-2.9-2.1-4.8-2.2c-0.1,0-0.2,0-0.4,0   c0,0-0.1,0-0.1,0v-7.4h4.1h-4.1v-7.7c0.1,0,0.1,0,0.1,0c0.1,0,0.3,0,0.4,0c1.9-0.1,3.5-0.9,4.8-2.2c1.5-1.5,2.2-3.3,2.2-5.4   c0-2.1-0.7-3.8-2.2-5.3c-1.3-1.4-2.9-2.1-4.8-2.2c-0.1,0-0.2,0-0.4,0c0,0-0.1,0-0.1,0v-7.5h4.1h-4.1v-7.6c0.1,0,0.1,0,0.1,0   c0.1,0,0.3,0,0.4,0c1.9-0.1,3.5-0.9,4.8-2.2c1.5-1.4,2.2-3.2,2.2-5.3c0-2.1-0.7-3.8-2.2-5.3c-1.3-1.4-2.9-2.1-4.8-2.3   c-0.1,0-0.2,0-0.4,0c0,0-0.1,0-0.1,0V40h4.1h-4.1v-7.7h14.3c7.9,0.1,15.6,1.7,22.9,4.9c6.9,3,13.1,7.3,18.4,12.7   c5.4,5.4,9.5,11.6,12.5,18.6c2.8,6.8,4.3,13.9,4.5,21.3v3c-0.2,7.5-1.7,14.6-4.5,21.4c-3,7.1-7.1,13.4-12.5,18.7   c-5.3,5.4-11.5,9.6-18.4,12.5c-7.3,3.1-14.9,4.7-22.9,4.8h-1.2l48.6,48.4h-60.4c-0.2,0-0.5,0-0.7,0c-0.1,0-0.2,0-0.4,0   c0,0-0.1,0-0.1,0V191.1z"
				id="svg_2" fill="#ffffff" fill-opacity="1" />
			<path class="st1"
				d="M132.5,40h4.1 M132.5,70.2h4.1 M104.1,40h28.3 M78.1,40h4.5 M45.2,130.6h5.3 M62.2,100.5h31.3 M132.5,100.5   h4.1 M132.5,160.8h4.1 M117,100.5h15.5 M73.9,130.6h58.5 M96.6,70.2h35.9 M132.5,191.1h4.1 M122.6,160.8h9.8 M34.7,160.8h43.4    M61.9,191.1h5.6 M87.2,191.1h45.3 M27.5,40h20"
				id="svg_3" fill="#ffffff" fill-opacity="1" />
		</g>
		<g class="" fill="#ffffff" fill-opacity="1" id="svg_4">
			<path class="st0"
				d="M142.65228462219238,201.25228462219238 h4.1 H142.65228462219238 v-7.7 c0.1,0 0.1,0 0.1,0 c0.1,0 0.30000000000000004,0 0.4,0 c1.9,-0.1 3.5,-0.9 4.8,-2.2 c1.5,-1.4 2.2,-3.2 2.2,-5.3 c0,-2.1 -0.7000000000000001,-3.8 -2.2,-5.3 c-1.3,-1.4 -2.9,-2.1 -4.8,-2.3 c-0.1,0 -0.2,0 -0.4,0 c0,0 -0.1,0 -0.1,0 v-7.4 h4.1 h-4.1 v-7.6 c0.1,0 0.1,0 0.1,0 c0.1,0 0.30000000000000004,0 0.4,0 c1.9,-0.1 3.5,-0.9 4.8,-2.2 c1.5,-1.5 2.2,-3.2 2.2,-5.3 c0,-2.1 -0.7000000000000001,-3.8 -2.2,-5.3 c-1.3,-1.4 -2.9,-2.1 -4.8,-2.3 c-0.1,0 -0.2,0 -0.4,0 c0,0 -0.1,0 -0.1,0 v-7.4 V133.15228462219238 c0.1,0 0.1,0 0.1,0 c0.1,0 0.30000000000000004,0 0.4,0 c1.9,-0.2 3.5,-0.9 4.8,-2.2 c1.5,-1.5 2.2,-3.3 2.2,-5.4 c0,-2.1 -0.7000000000000001,-3.8 -2.2,-5.3 c-1.3,-1.4 -2.9,-2.1 -4.8,-2.2 c-0.1,0 -0.2,0 -0.4,0 c0,0 -0.1,0 -0.1,0 v-7.4 h4.1 h-4.1 v-7.7 c0.1,0 0.1,0 0.1,0 c0.1,0 0.30000000000000004,0 0.4,0 c1.9,-0.1 3.5,-0.9 4.8,-2.2 c1.5,-1.5 2.2,-3.3 2.2,-5.4 c0,-2.1 -0.7000000000000001,-3.8 -2.2,-5.3 c-1.3,-1.4 -2.9,-2.1 -4.8,-2.2 c-0.1,0 -0.2,0 -0.4,0 c0,0 -0.1,0 -0.1,0 v-7.5 h4.1 h-4.1 v-7.6 c0.1,0 0.1,0 0.1,0 c0.1,0 0.30000000000000004,0 0.4,0 c1.9,-0.1 3.5,-0.9 4.8,-2.2 c1.5,-1.4 2.2,-3.2 2.2,-5.3 c0,-2.1 -0.7000000000000001,-3.8 -2.2,-5.3 c-1.3,-1.4 -2.9,-2.1 -4.8,-2.3 c-0.1,0 -0.2,0 -0.4,0 c0,0 -0.1,0 -0.1,0 V50.15228462219238 h4.1 h-4.1 v-7.7 h14.3 c7.9,0.1 15.6,1.7000000000000002 22.9,4.9 c6.9,3 13.1,7.3 18.4,12.7 c5.4,5.4 9.5,11.6 12.5,18.6 c2.8,6.8 4.3,13.9 4.5,21.3 v3 c-0.2,7.5 -1.7000000000000002,14.6 -4.5,21.4 c-3,7.1 -7.1,13.4 -12.5,18.7 c-5.3,5.4 -11.5,9.6 -18.4,12.5 c-7.3,3.1 -14.9,4.7 -22.9,4.8 h-1.2 l48.6,48.4 h-60.4 c-0.2,0 -0.5,0 -0.7000000000000001,0 c-0.1,0 -0.2,0 -0.4,0 c0,0 -0.1,0 -0.1,0 V201.25228462219238 z"
				id="svg_6" fill="#ffffff" fill-opacity="1" />
			<path class="st1"
				d="M142.65228462219238,50.15228462219238 h4.1 M142.65228462219238,80.35228462219239 h4.1 M114.25228462219238,50.15228462219238 h28.3 M88.25228462219238,50.15228462219238 h4.5 M55.352284622192386,140.75228462219238 h5.3 M72.35228462219239,110.65228462219238 h31.3 M142.65228462219238,110.65228462219238 h4.1 M142.65228462219238,170.9522846221924 h4.1 M127.15228462219238,110.65228462219238 h15.5 M84.05228462219239,140.75228462219238 h58.5 M106.75228462219238,80.35228462219239 h35.9 M142.65228462219238,201.25228462219238 h4.1 M132.75228462219238,170.9522846221924 h9.8 M44.852284622192386,170.9522846221924 h43.4 M72.05228462219239,201.25228462219238 h5.6 M97.35228462219239,201.25228462219238 h45.3 M37.65228462219238,50.15228462219238 h20 "
				id="svg_8" fill="#ffffff" fill-opacity="1" />
		</g>
	</g>
</svg>